<svg width="16" height="16" viewBox="0 0 16 16" fill="none" xmlns="http://www.w3.org/2000/svg">
<path d="M7.36133 7.93727C7.36133 8.22314 7.46751 8.46816 7.6962 8.68052L14.0506 14.9042C14.2303 15.0839 14.459 15.1819 14.7285 15.1819C15.2676 15.1819 15.7005 14.7572 15.7005 14.21C15.7005 13.9405 15.5861 13.7036 15.4064 13.5157L9.68093 7.93727L15.4064 2.35879C15.5861 2.17093 15.7005 1.92591 15.7005 1.66454C15.7005 1.11731 15.2676 0.692596 14.7285 0.692596C14.459 0.692596 14.2303 0.790608 14.0506 0.970295L7.6962 7.18585C7.46751 7.40637 7.36133 7.6514 7.36133 7.93727Z" fill="#141414"/>
<path d="M9.15491 7.93727C9.15491 7.65141 9.04873 7.40638 8.82004 7.19402L2.46563 0.970297C2.28595 0.79061 2.05725 0.692598 1.78772 0.692598C1.24866 0.692598 0.815775 1.11731 0.815775 1.66454C0.815775 1.93408 0.930122 2.17094 1.10981 2.35879L6.83531 7.93727L1.10981 13.5158C0.930121 13.7036 0.815774 13.9486 0.815774 14.21C0.815774 14.7572 1.24866 15.1819 1.78772 15.1819C2.05725 15.1819 2.28594 15.0839 2.46563 14.9042L8.82004 8.68869C9.04873 8.46817 9.15491 8.22314 9.15491 7.93727Z" fill="#141414"/>
</svg>
