<svg width="77" height="66" viewBox="0 0 77 66" fill="none" xmlns="http://www.w3.org/2000/svg">
<g clip-path="url(#clip0_371_696)">
<path d="M49.4051 17.9652C49.4051 11.7966 44.4112 6.79025 38.2581 6.79025C32.1049 6.79025 27.1111 11.7966 27.1111 17.9652C27.1111 23.3739 30.9457 27.8774 36.0287 28.9166V21.3177H33.7993V17.9652H36.0287V15.1715C36.0287 13.0147 37.7788 11.2602 39.9301 11.2602H42.7169V14.6127H40.4875C39.8744 14.6127 39.3728 15.1156 39.3728 15.7302V17.9652H42.7169V21.3177H39.3728V29.0842C45.002 28.5255 49.4051 23.765 49.4051 17.9652Z" fill="#141414"/>
</g>
<rect x="21.166" y="0.845184" width="34.1842" height="34.1841" rx="17.0921" stroke="#141414" stroke-width="1.48627"/>
<g filter="url(#filter0_d_371_696)">
<path d="M13.1682 57.7725H11.7795V49.2061H16.6135V50.3896H13.1682V53.0674H16.3967V54.2568H13.1682V57.7725ZM22.0745 57.7725L21.7991 56.8701H21.7522C21.4397 57.2646 21.1252 57.5342 20.8088 57.6787C20.4924 57.8193 20.0862 57.8896 19.5901 57.8896C18.9534 57.8896 18.4553 57.7178 18.0959 57.374C17.7405 57.0303 17.5627 56.5439 17.5627 55.915C17.5627 55.2471 17.8108 54.7432 18.3069 54.4033C18.803 54.0635 19.5588 53.8779 20.5745 53.8467L21.6936 53.8115V53.4658C21.6936 53.0518 21.5959 52.7432 21.4006 52.54C21.2092 52.333 20.9104 52.2295 20.5042 52.2295C20.1721 52.2295 19.8538 52.2783 19.5491 52.376C19.2444 52.4736 18.9514 52.5889 18.6702 52.7217L18.2249 51.7373C18.5764 51.5537 18.9612 51.415 19.3792 51.3213C19.7971 51.2236 20.1917 51.1748 20.5627 51.1748C21.387 51.1748 22.0081 51.3545 22.426 51.7139C22.8479 52.0732 23.0588 52.6377 23.0588 53.4072V57.7725H22.0745ZM20.0237 56.835C20.5237 56.835 20.9241 56.6963 21.2249 56.4189C21.5295 56.1377 21.6819 55.7451 21.6819 55.2412V54.6787L20.8499 54.7139C20.2014 54.7373 19.7288 54.8467 19.4319 55.042C19.1389 55.2334 18.9924 55.5283 18.9924 55.9268C18.9924 56.2158 19.0784 56.4404 19.2502 56.6006C19.4221 56.7568 19.6799 56.835 20.0237 56.835ZM27.594 57.8896C26.6135 57.8896 25.8674 57.6045 25.3557 57.0342C24.8479 56.46 24.594 55.6377 24.594 54.5674C24.594 53.4775 24.8596 52.6396 25.3909 52.0537C25.926 51.4678 26.6975 51.1748 27.7053 51.1748C28.3889 51.1748 29.0042 51.3018 29.551 51.5557L29.135 52.6631C28.553 52.4365 28.0725 52.3232 27.6936 52.3232C26.5725 52.3232 26.012 53.0674 26.012 54.5557C26.012 55.2822 26.1506 55.8291 26.428 56.1963C26.7092 56.5596 27.1194 56.7412 27.6584 56.7412C28.2717 56.7412 28.8518 56.5889 29.3987 56.2842V57.4854C29.1526 57.6299 28.8889 57.7334 28.6077 57.7959C28.3303 57.8584 27.9924 57.8896 27.594 57.8896ZM33.7522 57.8896C32.7444 57.8896 31.9553 57.5967 31.385 57.0107C30.8186 56.4209 30.5354 55.6104 30.5354 54.5791C30.5354 53.5205 30.7991 52.6885 31.3264 52.083C31.8538 51.4775 32.5784 51.1748 33.5002 51.1748C34.3557 51.1748 35.0315 51.4346 35.5276 51.9541C36.0237 52.4736 36.2717 53.1885 36.2717 54.0986V54.8428H31.9534C31.9729 55.4717 32.1428 55.9561 32.4631 56.2959C32.7834 56.6318 33.2346 56.7998 33.8167 56.7998C34.1995 56.7998 34.5549 56.7646 34.8831 56.6943C35.2151 56.6201 35.5706 56.499 35.9495 56.3311V57.4502C35.6135 57.6104 35.2737 57.7236 34.9299 57.79C34.5862 57.8564 34.1936 57.8896 33.7522 57.8896ZM33.5002 52.2178C33.0627 52.2178 32.7112 52.3564 32.4456 52.6338C32.1838 52.9111 32.0276 53.3154 31.9768 53.8467H34.9182C34.9104 53.3115 34.7815 52.9072 34.5315 52.6338C34.2815 52.3564 33.9377 52.2178 33.5002 52.2178ZM41.1467 51.1748C41.9553 51.1748 42.5842 51.4678 43.0334 52.0537C43.4866 52.6396 43.7131 53.4619 43.7131 54.5205C43.7131 55.583 43.4846 56.4111 43.0276 57.0049C42.5706 57.5947 41.9358 57.8896 41.1233 57.8896C40.303 57.8896 39.6663 57.5947 39.2131 57.0049H39.1194L38.8674 57.7725H37.8362V48.6553H39.2131V50.8232C39.2131 50.9834 39.2053 51.2217 39.1897 51.5381C39.1741 51.8545 39.1624 52.0557 39.1545 52.1416H39.2131C39.6506 51.4971 40.2952 51.1748 41.1467 51.1748ZM40.7893 52.2998C40.2346 52.2998 39.8342 52.4639 39.5881 52.792C39.3459 53.1162 39.2209 53.6611 39.2131 54.4268V54.5205C39.2131 55.3096 39.3381 55.8818 39.5881 56.2373C39.8381 56.5889 40.2463 56.7646 40.8127 56.7646C41.301 56.7646 41.6702 56.5713 41.9202 56.1846C42.1741 55.7979 42.301 55.2393 42.301 54.5088C42.301 53.0361 41.7971 52.2998 40.7893 52.2998ZM51.0608 54.5205C51.0608 55.5791 50.7893 56.4053 50.2463 56.999C49.7034 57.5928 48.9475 57.8896 47.9788 57.8896C47.3733 57.8896 46.8381 57.7529 46.3733 57.4795C45.9084 57.2061 45.551 56.8135 45.301 56.3018C45.051 55.79 44.926 55.1963 44.926 54.5205C44.926 53.4697 45.1956 52.6494 45.7346 52.0596C46.2737 51.4697 47.0334 51.1748 48.0139 51.1748C48.9514 51.1748 49.6936 51.4775 50.2405 52.083C50.7874 52.6846 51.0608 53.4971 51.0608 54.5205ZM46.344 54.5205C46.344 56.0166 46.8967 56.7646 48.0022 56.7646C49.0959 56.7646 49.6428 56.0166 49.6428 54.5205C49.6428 53.04 49.092 52.2998 47.9905 52.2998C47.4124 52.2998 46.9924 52.4912 46.7307 52.874C46.4729 53.2568 46.344 53.8057 46.344 54.5205ZM58.3967 54.5205C58.3967 55.5791 58.1252 56.4053 57.5823 56.999C57.0393 57.5928 56.2834 57.8896 55.3147 57.8896C54.7092 57.8896 54.1741 57.7529 53.7092 57.4795C53.2444 57.2061 52.887 56.8135 52.637 56.3018C52.387 55.79 52.262 55.1963 52.262 54.5205C52.262 53.4697 52.5315 52.6494 53.0706 52.0596C53.6096 51.4697 54.3694 51.1748 55.3499 51.1748C56.2874 51.1748 57.0295 51.4775 57.5764 52.083C58.1233 52.6846 58.3967 53.4971 58.3967 54.5205ZM53.6799 54.5205C53.6799 56.0166 54.2327 56.7646 55.3381 56.7646C56.4319 56.7646 56.9788 56.0166 56.9788 54.5205C56.9788 53.04 56.428 52.2998 55.3264 52.2998C54.7483 52.2998 54.3284 52.4912 54.0667 52.874C53.8088 53.2568 53.6799 53.8057 53.6799 54.5205ZM61.3147 54.3506L62.094 53.3779L64.051 51.292H65.6389L63.0315 54.0752L65.803 57.7725H64.1858L62.1057 54.9307L61.3499 55.5518V57.7725H59.9846V48.6553H61.3499V53.1025L61.2795 54.3506H61.3147Z" fill="#141414"/>
</g>
<defs>
<filter id="filter0_d_371_696" x="9.77954" y="48.6553" width="58.0234" height="13.2344" filterUnits="userSpaceOnUse" color-interpolation-filters="sRGB">
<feFlood flood-opacity="0" result="BackgroundImageFix"/>
<feColorMatrix in="SourceAlpha" type="matrix" values="0 0 0 0 0 0 0 0 0 0 0 0 0 0 0 0 0 0 127 0" result="hardAlpha"/>
<feOffset dy="2"/>
<feGaussianBlur stdDeviation="1"/>
<feComposite in2="hardAlpha" operator="out"/>
<feColorMatrix type="matrix" values="0 0 0 0 0 0 0 0 0 0 0 0 0 0 0 0 0 0 0.05 0"/>
<feBlend mode="normal" in2="BackgroundImageFix" result="effect1_dropShadow_371_696"/>
<feBlend mode="normal" in="SourceGraphic" in2="effect1_dropShadow_371_696" result="shape"/>
</filter>
<clipPath id="clip0_371_696">
<rect x="20.4229" y="0.102051" width="35.6704" height="35.6704" rx="17.8352" fill="white"/>
</clipPath>
</defs>
</svg>
