<svg width="66" height="58" viewBox="0 0 66 58" fill="none" xmlns="http://www.w3.org/2000/svg">
<rect x="18.4907" y="1.55676" width="28.9391" height="28.9391" rx="14.4695" stroke="#141414" stroke-width="1.47864"/>
<path d="M28.9973 6.64612C26.1197 6.64612 23.7861 8.9797 23.7861 11.8573V20.1953C23.7861 23.0729 26.1197 25.4065 28.9973 25.4065H37.3353C40.2129 25.4065 42.5465 23.0729 42.5465 20.1953V11.8573C42.5465 8.9797 40.2129 6.64612 37.3353 6.64612H28.9973ZM39.4198 8.7306C39.9951 8.7306 40.462 9.19753 40.462 9.77284C40.462 10.3482 39.9951 10.8151 39.4198 10.8151C38.8444 10.8151 38.3775 10.3482 38.3775 9.77284C38.3775 9.19753 38.8444 8.7306 39.4198 8.7306ZM33.1663 10.8151C36.0439 10.8151 38.3775 13.1487 38.3775 16.0263C38.3775 18.9039 36.0439 21.2375 33.1663 21.2375C30.2887 21.2375 27.9551 18.9039 27.9551 16.0263C27.9551 13.1487 30.2887 10.8151 33.1663 10.8151ZM33.1663 12.8996C32.3371 12.8996 31.5418 13.229 30.9554 13.8154C30.369 14.4017 30.0396 15.197 30.0396 16.0263C30.0396 16.8556 30.369 17.6509 30.9554 18.2372C31.5418 18.8236 32.3371 19.153 33.1663 19.153C33.9956 19.153 34.7909 18.8236 35.3772 18.2372C35.9636 17.6509 36.293 16.8556 36.293 16.0263C36.293 15.197 35.9636 14.4017 35.3772 13.8154C34.7909 13.229 33.9956 12.8996 33.1663 12.8996Z" fill="black"/>
<g filter="url(#filter0_d_481_784)">
<path d="M8.72197 49.3516V42.0466H9.91615V49.3516H8.72197ZM16.5865 49.3516H15.4073V45.9539C15.4073 45.5276 15.3207 45.2095 15.1475 44.9996C14.9776 44.7897 14.7062 44.6848 14.3331 44.6848C13.8368 44.6848 13.4737 44.8314 13.2438 45.1245C13.014 45.4176 12.8991 45.909 12.8991 46.5985V49.3516H11.7249V43.8254H12.6443L12.8091 44.5499H12.8691C13.0357 44.2868 13.2722 44.0836 13.5786 43.9403C13.8851 43.7971 14.2248 43.7255 14.5979 43.7255C15.9237 43.7255 16.5865 44.4 16.5865 45.7491V49.3516ZM21.9328 47.7777C21.9328 48.3173 21.7363 48.732 21.3432 49.0218C20.9502 49.3083 20.3872 49.4515 19.6544 49.4515C18.9183 49.4515 18.327 49.3399 17.8806 49.1168V48.1025C18.5302 48.4022 19.1348 48.5521 19.6944 48.5521C20.4172 48.5521 20.7786 48.334 20.7786 47.8976C20.7786 47.7577 20.7387 47.6411 20.6587 47.5478C20.5788 47.4546 20.4472 47.358 20.264 47.258C20.0808 47.1581 19.826 47.0449 19.4995 46.9183C18.8633 46.6718 18.4319 46.4253 18.2054 46.1788C17.9822 45.9323 17.8706 45.6125 17.8706 45.2195C17.8706 44.7464 18.0605 44.38 18.4402 44.1202C18.8233 43.8571 19.343 43.7255 19.9992 43.7255C20.6487 43.7255 21.2633 43.8571 21.8429 44.1202L21.4632 45.0046C20.8669 44.7581 20.3656 44.6349 19.9592 44.6349C19.3396 44.6349 19.0298 44.8114 19.0298 45.1645C19.0298 45.3377 19.1098 45.4843 19.2697 45.6042C19.4329 45.7241 19.786 45.889 20.3289 46.0988C20.7853 46.2754 21.1167 46.4369 21.3233 46.5835C21.5298 46.7301 21.683 46.9 21.7829 47.0932C21.8829 47.283 21.9328 47.5112 21.9328 47.7777ZM25.2655 48.5022C25.552 48.5022 25.8385 48.4572 26.1249 48.3673V49.2517C25.995 49.3083 25.8268 49.3549 25.6203 49.3916C25.4171 49.4315 25.2056 49.4515 24.9857 49.4515C23.8732 49.4515 23.3169 48.8653 23.3169 47.6927V44.7148H22.5624V44.1952L23.3718 43.7655L23.7716 42.5963H24.4961V43.8254H26.07V44.7148H24.4961V47.6728C24.4961 47.9559 24.566 48.1657 24.7059 48.3023C24.8491 48.4356 25.0357 48.5022 25.2655 48.5022ZM30.6918 49.3516L30.4569 48.5821H30.417C30.1505 48.9186 29.8823 49.1484 29.6125 49.2716C29.3427 49.3916 28.9963 49.4515 28.5732 49.4515C28.0303 49.4515 27.6056 49.305 27.2991 49.0118C26.996 48.7187 26.8444 48.304 26.8444 47.7677C26.8444 47.1981 27.056 46.7684 27.479 46.4786C27.902 46.1888 28.5466 46.0306 29.4127 46.0039L30.367 45.9739V45.6791C30.367 45.326 30.2837 45.0629 30.1172 44.8897C29.954 44.7131 29.6991 44.6249 29.3527 44.6249C29.0696 44.6249 28.7981 44.6665 28.5383 44.7498C28.2784 44.8331 28.0286 44.9313 27.7888 45.0446L27.409 44.2052C27.7088 44.0486 28.0369 43.9303 28.3934 43.8504C28.7498 43.7671 29.0862 43.7255 29.4027 43.7255C30.1055 43.7255 30.6351 43.8787 30.9916 44.1852C31.3513 44.4916 31.5312 44.973 31.5312 45.6292V49.3516H30.6918ZM28.943 48.5521C29.3694 48.5521 29.7108 48.4339 29.9673 48.1974C30.2271 47.9576 30.357 47.6228 30.357 47.1931V46.7134L29.6475 46.7434C29.0945 46.7634 28.6915 46.8567 28.4383 47.0232C28.1885 47.1864 28.0636 47.4379 28.0636 47.7777C28.0636 48.0242 28.1369 48.2157 28.2834 48.3523C28.43 48.4855 28.6499 48.5521 28.943 48.5521ZM37.8368 43.8254V44.47L36.8925 44.6448C36.9791 44.7614 37.0507 44.9047 37.1073 45.0746C37.164 45.2444 37.1923 45.4243 37.1923 45.6142C37.1923 46.1838 36.9957 46.6318 36.6027 46.9582C36.2096 47.2847 35.6683 47.4479 34.9788 47.4479C34.8023 47.4479 34.6424 47.4346 34.4991 47.4079C34.246 47.5645 34.1194 47.7477 34.1194 47.9576C34.1194 48.0841 34.1777 48.1791 34.2943 48.2424C34.4142 48.3056 34.6324 48.3373 34.9488 48.3373H35.9132C36.5227 48.3373 36.9858 48.4672 37.3022 48.727C37.6186 48.9868 37.7769 49.3616 37.7769 49.8512C37.7769 50.4775 37.5187 50.9605 37.0024 51.3002C36.4861 51.64 35.7399 51.8099 34.764 51.8099C34.0111 51.8099 33.4365 51.6767 33.0402 51.4102C32.6438 51.1437 32.4456 50.7639 32.4456 50.271C32.4456 49.9312 32.5522 49.6447 32.7653 49.4116C32.9819 49.1817 33.2833 49.0218 33.6697 48.9319C33.5132 48.8653 33.3832 48.7587 33.28 48.6121C33.1801 48.4622 33.1301 48.3056 33.1301 48.1424C33.1301 47.9359 33.1884 47.761 33.305 47.6178C33.4216 47.4746 33.5948 47.333 33.8246 47.1931C33.5381 47.0698 33.305 46.87 33.1251 46.5935C32.9485 46.3137 32.8603 45.9873 32.8603 45.6142C32.8603 45.0146 33.0485 44.5499 33.4249 44.2201C33.8046 43.8904 34.3442 43.7255 35.0438 43.7255C35.2003 43.7255 35.3635 43.7371 35.5334 43.7605C35.7066 43.7804 35.8365 43.8021 35.9232 43.8254H37.8368ZM33.4948 50.211C33.4948 50.4642 33.6081 50.659 33.8346 50.7956C34.0644 50.9322 34.3859 51.0005 34.7989 51.0005C35.4385 51.0005 35.9148 50.9088 36.2279 50.7256C36.5411 50.5424 36.6976 50.2993 36.6976 49.9961C36.6976 49.7563 36.611 49.5848 36.4378 49.4815C36.2679 49.3816 35.9498 49.3316 35.4835 49.3316H34.5941C34.2576 49.3316 33.9895 49.4099 33.7896 49.5664C33.5931 49.7263 33.4948 49.9412 33.4948 50.211ZM33.9995 45.6142C33.9995 45.9606 34.0878 46.2271 34.2643 46.4136C34.4442 46.6002 34.7007 46.6934 35.0338 46.6934C35.7133 46.6934 36.0531 46.3303 36.0531 45.6042C36.0531 45.2444 35.9681 44.968 35.7982 44.7748C35.6317 44.5782 35.3769 44.48 35.0338 44.48C34.694 44.48 34.4359 44.5766 34.2593 44.7698C34.0861 44.963 33.9995 45.2444 33.9995 45.6142ZM41.6692 43.7255C41.9057 43.7255 42.1005 43.7421 42.2538 43.7755L42.1389 44.8697C41.9723 44.8297 41.7991 44.8097 41.6192 44.8097C41.1495 44.8097 40.7681 44.963 40.475 45.2694C40.1852 45.5759 40.0403 45.9739 40.0403 46.4636V49.3516H38.8661V43.8254H39.7855L39.9404 44.7997H40.0003C40.1835 44.47 40.4217 44.2085 40.7148 44.0153C41.0113 43.8221 41.3294 43.7255 41.6692 43.7255ZM46.7407 49.3516L46.5058 48.5821H46.4659C46.1994 48.9186 45.9312 49.1484 45.6614 49.2716C45.3916 49.3916 45.0452 49.4515 44.6221 49.4515C44.0792 49.4515 43.6545 49.305 43.348 49.0118C43.0449 48.7187 42.8933 48.304 42.8933 47.7677C42.8933 47.1981 43.1049 46.7684 43.5279 46.4786C43.9509 46.1888 44.5955 46.0306 45.4616 46.0039L46.4159 45.9739V45.6791C46.4159 45.326 46.3326 45.0629 46.1661 44.8897C46.0028 44.7131 45.748 44.6249 45.4016 44.6249C45.1185 44.6249 44.847 44.6665 44.5872 44.7498C44.3273 44.8331 44.0775 44.9313 43.8377 45.0446L43.4579 44.2052C43.7577 44.0486 44.0858 43.9303 44.4423 43.8504C44.7987 43.7671 45.1351 43.7255 45.4516 43.7255C46.1544 43.7255 46.684 43.8787 47.0405 44.1852C47.4002 44.4916 47.5801 44.973 47.5801 45.6292V49.3516H46.7407ZM44.9919 48.5521C45.4183 48.5521 45.7597 48.4339 46.0162 48.1974C46.276 47.9576 46.4059 47.6228 46.4059 47.1931V46.7134L45.6964 46.7434C45.1434 46.7634 44.7404 46.8567 44.4872 47.0232C44.2374 47.1864 44.1125 47.4379 44.1125 47.7777C44.1125 48.0242 44.1858 48.2157 44.3323 48.3523C44.4789 48.4855 44.6987 48.5521 44.9919 48.5521ZM53.8757 49.3516H52.6966V45.944C52.6966 45.5209 52.6166 45.2061 52.4567 44.9996C52.2968 44.7897 52.047 44.6848 51.7072 44.6848C51.2542 44.6848 50.9211 44.8331 50.7079 45.1295C50.4981 45.4226 50.3931 45.9123 50.3931 46.5985V49.3516H49.219V43.8254H50.1383L50.3032 44.5499H50.3632C50.5164 44.2868 50.7379 44.0836 51.0277 43.9403C51.3208 43.7971 51.6423 43.7255 51.992 43.7255C52.8415 43.7255 53.4044 44.0153 53.6809 44.5949H53.7608C53.924 44.3217 54.1539 44.1086 54.4503 43.9553C54.7468 43.8021 55.0866 43.7255 55.4696 43.7255C56.1292 43.7255 56.6088 43.892 56.9086 44.2251C57.2118 44.5582 57.3633 45.0662 57.3633 45.7491V49.3516H56.1891V45.944C56.1891 45.5209 56.1075 45.2061 55.9443 44.9996C55.7844 44.7897 55.5346 44.6848 55.1948 44.6848C54.7385 44.6848 54.4037 44.8281 54.1905 45.1145C53.9807 45.3977 53.8757 45.834 53.8757 46.4236V49.3516Z" fill="#141414"/>
</g>
<defs>
<filter id="filter0_d_481_784" x="7.01644" y="42.0466" width="52.0523" height="13.1742" filterUnits="userSpaceOnUse" color-interpolation-filters="sRGB">
<feFlood flood-opacity="0" result="BackgroundImageFix"/>
<feColorMatrix in="SourceAlpha" type="matrix" values="0 0 0 0 0 0 0 0 0 0 0 0 0 0 0 0 0 0 127 0" result="hardAlpha"/>
<feOffset dy="1.70549"/>
<feGaussianBlur stdDeviation="0.852743"/>
<feComposite in2="hardAlpha" operator="out"/>
<feColorMatrix type="matrix" values="0 0 0 0 0 0 0 0 0 0 0 0 0 0 0 0 0 0 0.05 0"/>
<feBlend mode="normal" in2="BackgroundImageFix" result="effect1_dropShadow_481_784"/>
<feBlend mode="normal" in="SourceGraphic" in2="effect1_dropShadow_481_784" result="shape"/>
</filter>
</defs>
</svg>
