<svg width="77" height="66" viewBox="0 0 77 66" fill="none" xmlns="http://www.w3.org/2000/svg">
<rect x="21.2898" y="0.96904" width="33.9365" height="33.9364" rx="16.9682" stroke="#141414" stroke-width="1.73398"/>
<path d="M47.0081 6.68726H29.5082C28.1269 6.68726 27.0082 7.806 27.0082 9.18725V26.6872C27.0082 28.0684 28.1269 29.1872 29.5082 29.1872H47.0081C48.3894 29.1872 49.5081 28.0684 49.5081 26.6872V9.18725C49.5081 7.806 48.3894 6.68726 47.0081 6.68726ZM34.5082 24.1872H31.3544V15.4372H34.5082V24.1872ZM32.8757 13.8335C31.9119 13.8335 31.2682 13.191 31.2682 12.3335C31.2682 11.476 31.9107 10.8335 32.9819 10.8335C33.9457 10.8335 34.5894 11.476 34.5894 12.3335C34.5894 13.191 33.9469 13.8335 32.8757 13.8335ZM45.7581 24.1872H42.7056V19.4047C42.7056 18.0822 41.8919 17.7772 41.5869 17.7772C41.2819 17.7772 40.2644 17.981 40.2644 19.4047C40.2644 19.6085 40.2644 24.1872 40.2644 24.1872H37.1107V15.4372H40.2644V16.6585C40.6706 15.946 41.4844 15.4372 43.0106 15.4372C44.5369 15.4372 45.7581 16.6585 45.7581 19.4047V24.1872Z" fill="#141414"/>
<g filter="url(#filter0_d_371_707)">
<path d="M14.5393 57.7725V49.2061H15.9397V56.5713H19.5667V57.7725H14.5393ZM22.2737 57.7725H20.8967V51.292H22.2737V57.7725ZM20.8147 49.5752C20.8147 49.3291 20.8811 49.1396 21.0139 49.0068C21.1506 48.874 21.344 48.8076 21.594 48.8076C21.8362 48.8076 22.0237 48.874 22.1565 49.0068C22.2932 49.1396 22.3616 49.3291 22.3616 49.5752C22.3616 49.8096 22.2932 49.9951 22.1565 50.1318C22.0237 50.2646 21.8362 50.3311 21.594 50.3311C21.344 50.3311 21.1506 50.2646 21.0139 50.1318C20.8811 49.9951 20.8147 49.8096 20.8147 49.5752ZM29.9495 57.7725H28.5667V53.7881C28.5667 53.2881 28.4651 52.915 28.262 52.6689C28.0627 52.4229 27.7444 52.2998 27.3069 52.2998C26.7249 52.2998 26.2991 52.4717 26.0295 52.8154C25.76 53.1592 25.6252 53.7354 25.6252 54.5439V57.7725H24.2483V51.292H25.3264L25.5198 52.1416H25.5901C25.7854 51.833 26.0627 51.5947 26.4221 51.4268C26.7815 51.2588 27.1799 51.1748 27.6174 51.1748C29.1721 51.1748 29.9495 51.9658 29.9495 53.5479V57.7725ZM33.1956 54.3506L33.9749 53.3779L35.9319 51.292H37.5198L34.9124 54.0752L37.6838 57.7725H36.0667L33.9866 54.9307L33.2307 55.5518V57.7725H31.8655V48.6553H33.2307V53.1025L33.1604 54.3506H33.1956ZM41.5627 57.8896C40.5549 57.8896 39.7659 57.5967 39.1956 57.0107C38.6292 56.4209 38.3459 55.6104 38.3459 54.5791C38.3459 53.5205 38.6096 52.6885 39.137 52.083C39.6643 51.4775 40.3889 51.1748 41.3108 51.1748C42.1663 51.1748 42.842 51.4346 43.3381 51.9541C43.8342 52.4736 44.0823 53.1885 44.0823 54.0986V54.8428H39.7639C39.7834 55.4717 39.9534 55.9561 40.2737 56.2959C40.594 56.6318 41.0452 56.7998 41.6272 56.7998C42.01 56.7998 42.3655 56.7646 42.6936 56.6943C43.0256 56.6201 43.3811 56.499 43.76 56.3311V57.4502C43.4241 57.6104 43.0842 57.7236 42.7405 57.79C42.3967 57.8564 42.0042 57.8896 41.5627 57.8896ZM41.3108 52.2178C40.8733 52.2178 40.5217 52.3564 40.2561 52.6338C39.9944 52.9111 39.8381 53.3154 39.7874 53.8467H42.7288C42.7209 53.3115 42.592 52.9072 42.342 52.6338C42.092 52.3564 41.7483 52.2178 41.3108 52.2178ZM47.8323 57.8896C47.0237 57.8896 46.3928 57.5967 45.9397 57.0107C45.4866 56.4248 45.26 55.6025 45.26 54.5439C45.26 53.4814 45.4885 52.6553 45.9456 52.0654C46.4065 51.4717 47.0432 51.1748 47.8557 51.1748C48.7073 51.1748 49.3557 51.4893 49.801 52.1182H49.8713C49.8049 51.6533 49.7717 51.2861 49.7717 51.0166V48.6553H51.1545V57.7725H50.0764L49.8362 56.9229H49.7717C49.3303 57.5674 48.6838 57.8896 47.8323 57.8896ZM48.2014 56.7764C48.7678 56.7764 49.1799 56.6182 49.4377 56.3018C49.6956 55.9814 49.8284 55.4639 49.8362 54.749V54.5557C49.8362 53.7393 49.7034 53.1592 49.4377 52.8154C49.1721 52.4717 48.7561 52.2998 48.1897 52.2998C47.7053 52.2998 47.3323 52.4971 47.0706 52.8916C46.8088 53.2822 46.678 53.8408 46.678 54.5674C46.678 55.2861 46.8049 55.835 47.0588 56.2139C47.3127 56.5889 47.6936 56.7764 48.2014 56.7764ZM54.5002 57.7725H53.1233V51.292H54.5002V57.7725ZM53.0413 49.5752C53.0413 49.3291 53.1077 49.1396 53.2405 49.0068C53.3772 48.874 53.5706 48.8076 53.8206 48.8076C54.0627 48.8076 54.2502 48.874 54.3831 49.0068C54.5198 49.1396 54.5881 49.3291 54.5881 49.5752C54.5881 49.8096 54.5198 49.9951 54.3831 50.1318C54.2502 50.2646 54.0627 50.3311 53.8206 50.3311C53.5706 50.3311 53.3772 50.2646 53.2405 50.1318C53.1077 49.9951 53.0413 49.8096 53.0413 49.5752ZM62.176 57.7725H60.7932V53.7881C60.7932 53.2881 60.6917 52.915 60.4885 52.6689C60.2893 52.4229 59.9709 52.2998 59.5334 52.2998C58.9514 52.2998 58.5256 52.4717 58.2561 52.8154C57.9866 53.1592 57.8518 53.7354 57.8518 54.5439V57.7725H56.4749V51.292H57.553L57.7463 52.1416H57.8167C58.012 51.833 58.2893 51.5947 58.6487 51.4268C59.0081 51.2588 59.4065 51.1748 59.844 51.1748C61.3987 51.1748 62.176 51.9658 62.176 53.5479V57.7725Z" fill="#141414"/>
</g>
<defs>
<filter id="filter0_d_371_707" x="12.5393" y="48.6553" width="51.6367" height="13.2344" filterUnits="userSpaceOnUse" color-interpolation-filters="sRGB">
<feFlood flood-opacity="0" result="BackgroundImageFix"/>
<feColorMatrix in="SourceAlpha" type="matrix" values="0 0 0 0 0 0 0 0 0 0 0 0 0 0 0 0 0 0 127 0" result="hardAlpha"/>
<feOffset dy="2"/>
<feGaussianBlur stdDeviation="1"/>
<feComposite in2="hardAlpha" operator="out"/>
<feColorMatrix type="matrix" values="0 0 0 0 0 0 0 0 0 0 0 0 0 0 0 0 0 0 0.05 0"/>
<feBlend mode="normal" in2="BackgroundImageFix" result="effect1_dropShadow_371_707"/>
<feBlend mode="normal" in="SourceGraphic" in2="effect1_dropShadow_371_707" result="shape"/>
</filter>
</defs>
</svg>
