<svg width="77" height="66" viewBox="0 0 77 66" fill="none" xmlns="http://www.w3.org/2000/svg">
<rect x="21.166" y="0.845184" width="34.1842" height="34.1841" rx="17.0921" stroke="#141414" stroke-width="1.48627"/>
<path d="M35.7405 13.4059L42.4273 22.9343H40.6496L33.9747 13.4059H35.7405ZM48.7401 11.0451V25.2951C48.7401 27.2628 47.1453 28.8576 45.1776 28.8576H30.9276C28.9599 28.8576 27.3651 27.2628 27.3651 25.2951V11.0451C27.3651 9.07744 28.9599 7.48264 30.9276 7.48264H45.1776C47.1453 7.48264 48.7401 9.07744 48.7401 11.0451ZM44.6289 24.1076L39.6581 16.9945L43.7217 12.2326H42.1649L38.9539 15.9851L36.3331 12.2326H31.7612L36.4412 18.9218L32.0035 24.1076H33.5864L37.1501 19.9323L40.069 24.1076H44.6289Z" fill="#141414"/>
<g filter="url(#filter0_d_371_702)">
<path d="M21.5999 57.7725H20.1995V50.4072H17.6799V49.2061H24.1194V50.4072H21.5999V57.7725ZM30.6057 57.7725L29.7678 54.749C29.6663 54.4287 29.4827 53.6846 29.217 52.5166H29.1643C28.9377 53.5713 28.7581 54.3193 28.6252 54.7607L27.7639 57.7725H26.2405L24.4241 51.292H25.8303L26.6565 54.4854C26.844 55.2744 26.9768 55.9502 27.0549 56.5127H27.0901C27.1292 56.2275 27.1877 55.9014 27.2659 55.5342C27.3479 55.1631 27.4182 54.8857 27.4768 54.7021L28.4612 51.292H29.9729L30.928 54.7021C30.9866 54.8936 31.0588 55.1865 31.1448 55.5811C31.2346 55.9756 31.2874 56.2822 31.303 56.501H31.3499C31.4084 56.0205 31.5452 55.3486 31.76 54.4854L32.5979 51.292H33.9807L32.1526 57.7725H30.6057ZM36.4768 57.7725H35.0999V51.292H36.4768V57.7725ZM35.0178 49.5752C35.0178 49.3291 35.0842 49.1396 35.217 49.0068C35.3538 48.874 35.5471 48.8076 35.7971 48.8076C36.0393 48.8076 36.2268 48.874 36.3596 49.0068C36.4963 49.1396 36.5647 49.3291 36.5647 49.5752C36.5647 49.8096 36.4963 49.9951 36.3596 50.1318C36.2268 50.2646 36.0393 50.3311 35.7971 50.3311C35.5471 50.3311 35.3538 50.2646 35.217 50.1318C35.0842 49.9951 35.0178 49.8096 35.0178 49.5752ZM40.8655 56.7764C41.2014 56.7764 41.5374 56.7236 41.8733 56.6182V57.6553C41.7209 57.7217 41.5237 57.7764 41.2815 57.8193C41.0432 57.8662 40.7952 57.8896 40.5374 57.8896C39.2327 57.8896 38.5803 57.2021 38.5803 55.8271V52.335H37.6956V51.7256L38.6448 51.2217L39.1135 49.8506H39.9631V51.292H41.8088V52.335H39.9631V55.8037C39.9631 56.1357 40.0452 56.3818 40.2092 56.542C40.3772 56.6982 40.5959 56.7764 40.8655 56.7764ZM45.5881 56.7764C45.9241 56.7764 46.26 56.7236 46.5959 56.6182V57.6553C46.4436 57.7217 46.2463 57.7764 46.0042 57.8193C45.7659 57.8662 45.5178 57.8896 45.26 57.8896C43.9553 57.8896 43.303 57.2021 43.303 55.8271V52.335H42.4182V51.7256L43.3674 51.2217L43.8362 49.8506H44.6858V51.292H46.5315V52.335H44.6858V55.8037C44.6858 56.1357 44.7678 56.3818 44.9319 56.542C45.0999 56.6982 45.3186 56.7764 45.5881 56.7764ZM50.7268 57.8896C49.719 57.8896 48.9299 57.5967 48.3596 57.0107C47.7932 56.4209 47.51 55.6104 47.51 54.5791C47.51 53.5205 47.7737 52.6885 48.301 52.083C48.8284 51.4775 49.553 51.1748 50.4749 51.1748C51.3303 51.1748 52.0061 51.4346 52.5022 51.9541C52.9983 52.4736 53.2463 53.1885 53.2463 54.0986V54.8428H48.928C48.9475 55.4717 49.1174 55.9561 49.4377 56.2959C49.7581 56.6318 50.2092 56.7998 50.7913 56.7998C51.1741 56.7998 51.5295 56.7646 51.8577 56.6943C52.1897 56.6201 52.5452 56.499 52.9241 56.3311V57.4502C52.5881 57.6104 52.2483 57.7236 51.9045 57.79C51.5608 57.8564 51.1682 57.8896 50.7268 57.8896ZM50.4749 52.2178C50.0374 52.2178 49.6858 52.3564 49.4202 52.6338C49.1584 52.9111 49.0022 53.3154 48.9514 53.8467H51.8928C51.885 53.3115 51.7561 52.9072 51.5061 52.6338C51.2561 52.3564 50.9124 52.2178 50.4749 52.2178ZM58.0979 51.1748C58.3752 51.1748 58.6038 51.1943 58.7834 51.2334L58.6487 52.5166C58.4534 52.4697 58.2502 52.4463 58.0393 52.4463C57.4885 52.4463 57.0413 52.626 56.6975 52.9854C56.3577 53.3447 56.1877 53.8115 56.1877 54.3857V57.7725H54.8108V51.292H55.8889L56.0706 52.4346H56.1409C56.3557 52.0479 56.635 51.7412 56.9788 51.5146C57.3264 51.2881 57.6995 51.1748 58.0979 51.1748Z" fill="#141414"/>
</g>
<defs>
<filter id="filter0_d_371_702" x="15.6799" y="48.8076" width="45.1035" height="13.082" filterUnits="userSpaceOnUse" color-interpolation-filters="sRGB">
<feFlood flood-opacity="0" result="BackgroundImageFix"/>
<feColorMatrix in="SourceAlpha" type="matrix" values="0 0 0 0 0 0 0 0 0 0 0 0 0 0 0 0 0 0 127 0" result="hardAlpha"/>
<feOffset dy="2"/>
<feGaussianBlur stdDeviation="1"/>
<feComposite in2="hardAlpha" operator="out"/>
<feColorMatrix type="matrix" values="0 0 0 0 0 0 0 0 0 0 0 0 0 0 0 0 0 0 0.05 0"/>
<feBlend mode="normal" in2="BackgroundImageFix" result="effect1_dropShadow_371_702"/>
<feBlend mode="normal" in="SourceGraphic" in2="effect1_dropShadow_371_702" result="shape"/>
</filter>
</defs>
</svg>
