<svg width="77" height="67" viewBox="0 0 77 67" fill="none" xmlns="http://www.w3.org/2000/svg">
<rect x="21.0081" y="1.68726" width="34.5" height="34.5" rx="17.25" stroke="#141414" stroke-width="1.5"/>
<path d="M46.22 10.9813C44.0983 8.85838 41.2768 7.68838 38.2708 7.68726C32.0765 7.68726 27.0354 12.7261 27.0332 18.9204C27.032 20.9004 27.5495 22.8331 28.5328 24.5364L27.0084 30.1873L32.8955 28.7956C34.5369 29.6911 36.3842 30.1625 38.2652 30.1636H38.2697C44.4628 30.1636 49.5039 25.1236 49.5073 18.9305C49.5095 15.9279 48.3418 13.1053 46.22 10.9813ZM43.7687 22.9355C43.5347 23.5914 42.3883 24.2236 41.873 24.2698C41.3578 24.317 40.8752 24.5026 38.5037 23.5678C35.6495 22.4428 33.8473 19.5166 33.7078 19.3299C33.5672 19.142 32.5614 17.8078 32.5614 16.4263C32.5614 15.0448 33.287 14.3653 33.5447 14.0851C33.8023 13.8039 34.106 13.7341 34.2939 13.7341C34.4807 13.7341 34.6685 13.7341 34.8317 13.7409C35.0319 13.7488 35.2535 13.7589 35.4639 14.2258C35.7137 14.7815 36.2593 16.1698 36.329 16.3104C36.3988 16.451 36.446 16.6153 36.3527 16.802C36.2593 16.9888 36.212 17.1058 36.0725 17.27C35.9319 17.4343 35.7778 17.6356 35.6518 17.7616C35.5112 17.9011 35.3649 18.0541 35.528 18.3343C35.6923 18.6155 36.2548 19.5346 37.0895 20.2783C38.1628 21.2345 39.0662 21.5304 39.3474 21.6721C39.6287 21.8128 39.7918 21.7891 39.956 21.6013C40.1203 21.4145 40.658 20.7823 40.8448 20.501C41.0315 20.2198 41.2194 20.267 41.477 20.3604C41.7347 20.4538 43.115 21.1333 43.3952 21.2739C43.6764 21.4145 43.8632 21.4843 43.9329 21.6013C44.0027 21.7171 44.0027 22.2796 43.7687 22.9355Z" fill="#141414"/>
<g filter="url(#filter0_d_371_691)">
<path d="M18.0842 58.9373H16.5608L15.1077 53.8279C15.0452 53.6052 14.967 53.2849 14.8733 52.8669C14.7795 52.4451 14.7229 52.1521 14.7034 51.988C14.6643 52.238 14.5999 52.5623 14.51 52.9607C14.4241 53.3591 14.3518 53.656 14.2932 53.8513L12.8752 58.9373H11.3518L10.2444 54.6482L9.11938 50.3708H10.5491L11.7737 55.363C11.9651 56.1638 12.1018 56.8708 12.1838 57.4841C12.2268 57.1521 12.2913 56.781 12.3772 56.3708C12.4631 55.9607 12.5413 55.6287 12.6116 55.3748L14.0061 50.3708H15.3948L16.8245 55.3982C16.9612 55.863 17.1057 56.5583 17.2581 57.4841C17.3167 56.9255 17.4573 56.2146 17.6799 55.3513L18.8987 50.3708H20.3167L18.0842 58.9373ZM27.0901 58.9373H25.7073V54.9529C25.7073 54.4529 25.6057 54.0798 25.4026 53.8337C25.2034 53.5876 24.885 53.4646 24.4475 53.4646C23.8694 53.4646 23.4436 53.6384 23.1702 53.9861C22.9006 54.3298 22.7659 54.908 22.7659 55.7205V58.9373H21.3889V49.8201H22.7659V52.1345C22.7659 52.5056 22.7424 52.9021 22.6956 53.324H22.7834C22.9709 53.0115 23.2307 52.7693 23.5627 52.5974C23.8987 52.4255 24.2893 52.3396 24.7346 52.3396C26.3049 52.3396 27.0901 53.1306 27.0901 54.7126V58.9373ZM33.0608 58.9373L32.7854 58.0349H32.7385C32.426 58.4294 32.1116 58.699 31.7952 58.8435C31.4788 58.9841 31.0725 59.0544 30.5764 59.0544C29.9397 59.0544 29.4417 58.8826 29.0823 58.5388C28.7268 58.1951 28.5491 57.7087 28.5491 57.0798C28.5491 56.4119 28.7971 55.908 29.2932 55.5681C29.7893 55.2283 30.5452 55.0427 31.5608 55.0115L32.6799 54.9763V54.6306C32.6799 54.2166 32.5823 53.908 32.387 53.7048C32.1956 53.4978 31.8967 53.3943 31.4905 53.3943C31.1584 53.3943 30.8401 53.4431 30.5354 53.5408C30.2307 53.6384 29.9377 53.7537 29.6565 53.8865L29.2112 52.9021C29.5627 52.7185 29.9475 52.5798 30.3655 52.4861C30.7834 52.3884 31.178 52.3396 31.5491 52.3396C32.3733 52.3396 32.9944 52.5193 33.4124 52.8787C33.8342 53.238 34.0452 53.8025 34.0452 54.572V58.9373H33.0608ZM31.01 57.9998C31.51 57.9998 31.9104 57.8611 32.2112 57.5837C32.5159 57.3025 32.6682 56.9099 32.6682 56.406V55.8435L31.8362 55.8787C31.1877 55.9021 30.7151 56.0115 30.4182 56.2068C30.1252 56.3982 29.9788 56.6931 29.9788 57.0916C29.9788 57.3806 30.0647 57.6052 30.2366 57.7654C30.4084 57.9216 30.6663 57.9998 31.01 57.9998ZM38.3811 57.9412C38.717 57.9412 39.053 57.8884 39.3889 57.783V58.8201C39.2366 58.8865 39.0393 58.9412 38.7971 58.9841C38.5588 59.031 38.3108 59.0544 38.053 59.0544C36.7483 59.0544 36.0959 58.3669 36.0959 56.9919V53.4998H35.2112V52.8904L36.1604 52.3865L36.6292 51.0154H37.4788V52.4568H39.3245V53.4998H37.4788V56.9685C37.4788 57.3005 37.5608 57.5466 37.7249 57.7068C37.8928 57.863 38.1116 57.9412 38.3811 57.9412ZM45.0432 57.0916C45.0432 57.7244 44.8127 58.2107 44.3518 58.5505C43.8909 58.8865 43.2307 59.0544 42.3713 59.0544C41.5081 59.0544 40.8147 58.9236 40.2913 58.6619V57.4724C41.053 57.824 41.762 57.9998 42.4182 57.9998C43.2659 57.9998 43.6897 57.7439 43.6897 57.2322C43.6897 57.0681 43.6428 56.9314 43.5491 56.822C43.4553 56.7126 43.301 56.5994 43.0862 56.4822C42.8713 56.365 42.5725 56.2322 42.1897 56.0837C41.4436 55.7947 40.9377 55.5056 40.6721 55.2166C40.4104 54.9275 40.2795 54.5525 40.2795 54.0916C40.2795 53.5369 40.5022 53.1072 40.9475 52.8025C41.3967 52.4939 42.0061 52.3396 42.7756 52.3396C43.5374 52.3396 44.2581 52.4939 44.9377 52.8025L44.4924 53.8396C43.7932 53.5505 43.2053 53.406 42.7288 53.406C42.0022 53.406 41.6389 53.613 41.6389 54.0271C41.6389 54.2302 41.7327 54.4021 41.9202 54.5427C42.1116 54.6833 42.5256 54.8767 43.1624 55.1228C43.6975 55.3298 44.0862 55.5193 44.3284 55.6912C44.5706 55.863 44.7502 56.0623 44.8674 56.2888C44.9846 56.5115 45.0432 56.7791 45.0432 57.0916ZM50.592 58.9373L50.3167 58.0349H50.2698C49.9573 58.4294 49.6428 58.699 49.3264 58.8435C49.01 58.9841 48.6038 59.0544 48.1077 59.0544C47.4709 59.0544 46.9729 58.8826 46.6135 58.5388C46.2581 58.1951 46.0803 57.7087 46.0803 57.0798C46.0803 56.4119 46.3284 55.908 46.8245 55.5681C47.3206 55.2283 48.0764 55.0427 49.092 55.0115L50.2112 54.9763V54.6306C50.2112 54.2166 50.1135 53.908 49.9182 53.7048C49.7268 53.4978 49.428 53.3943 49.0217 53.3943C48.6897 53.3943 48.3713 53.4431 48.0667 53.5408C47.762 53.6384 47.469 53.7537 47.1877 53.8865L46.7424 52.9021C47.094 52.7185 47.4788 52.5798 47.8967 52.4861C48.3147 52.3884 48.7092 52.3396 49.0803 52.3396C49.9045 52.3396 50.5256 52.5193 50.9436 52.8787C51.3655 53.238 51.5764 53.8025 51.5764 54.572V58.9373H50.592ZM48.5413 57.9998C49.0413 57.9998 49.4417 57.8611 49.7424 57.5837C50.0471 57.3025 50.1995 56.9099 50.1995 56.406V55.8435L49.3674 55.8787C48.719 55.9021 48.2463 56.0115 47.9495 56.2068C47.6565 56.3982 47.51 56.6931 47.51 57.0916C47.51 57.3806 47.5959 57.6052 47.7678 57.7654C47.9397 57.9216 48.1975 57.9998 48.5413 57.9998ZM56.7854 59.0544C55.9651 59.0544 55.3284 58.7595 54.8752 58.1697H54.7932C54.8479 58.7166 54.8752 59.0486 54.8752 59.1658V61.8201H53.4983V52.4568H54.6116C54.6428 52.5779 54.7073 52.8669 54.8049 53.324H54.8752C55.3049 52.6677 55.9495 52.3396 56.8088 52.3396C57.6174 52.3396 58.2463 52.6326 58.6956 53.2185C59.1487 53.8044 59.3752 54.6267 59.3752 55.6853C59.3752 56.7439 59.1448 57.5701 58.6838 58.1638C58.2268 58.7576 57.594 59.0544 56.7854 59.0544ZM56.4514 53.4646C55.9045 53.4646 55.5042 53.6248 55.2502 53.9451C55.0002 54.2654 54.8752 54.7771 54.8752 55.4802V55.6853C54.8752 56.4744 55.0002 57.0466 55.2502 57.4021C55.5002 57.7537 55.9084 57.9294 56.4749 57.9294C56.9514 57.9294 57.3186 57.7341 57.5764 57.3435C57.8342 56.9529 57.9631 56.3962 57.9631 55.6736C57.9631 54.947 57.8342 54.3982 57.5764 54.0271C57.3225 53.6521 56.9475 53.4646 56.4514 53.4646ZM64.262 59.0544C63.4417 59.0544 62.8049 58.7595 62.3518 58.1697H62.2698C62.3245 58.7166 62.3518 59.0486 62.3518 59.1658V61.8201H60.9749V52.4568H62.0881C62.1194 52.5779 62.1838 52.8669 62.2815 53.324H62.3518C62.7815 52.6677 63.426 52.3396 64.2854 52.3396C65.094 52.3396 65.7229 52.6326 66.1721 53.2185C66.6252 53.8044 66.8518 54.6267 66.8518 55.6853C66.8518 56.7439 66.6213 57.5701 66.1604 58.1638C65.7034 58.7576 65.0706 59.0544 64.262 59.0544ZM63.928 53.4646C63.3811 53.4646 62.9807 53.6248 62.7268 53.9451C62.4768 54.2654 62.3518 54.7771 62.3518 55.4802V55.6853C62.3518 56.4744 62.4768 57.0466 62.7268 57.4021C62.9768 57.7537 63.385 57.9294 63.9514 57.9294C64.428 57.9294 64.7952 57.7341 65.053 57.3435C65.3108 56.9529 65.4397 56.3962 65.4397 55.6736C65.4397 54.947 65.3108 54.3982 65.053 54.0271C64.7991 53.6521 64.4241 53.4646 63.928 53.4646Z" fill="#141414"/>
</g>
<defs>
<filter id="filter0_d_371_691" x="7.11938" y="49.8201" width="61.7324" height="16" filterUnits="userSpaceOnUse" color-interpolation-filters="sRGB">
<feFlood flood-opacity="0" result="BackgroundImageFix"/>
<feColorMatrix in="SourceAlpha" type="matrix" values="0 0 0 0 0 0 0 0 0 0 0 0 0 0 0 0 0 0 127 0" result="hardAlpha"/>
<feOffset dy="2"/>
<feGaussianBlur stdDeviation="1"/>
<feComposite in2="hardAlpha" operator="out"/>
<feColorMatrix type="matrix" values="0 0 0 0 0 0 0 0 0 0 0 0 0 0 0 0 0 0 0.05 0"/>
<feBlend mode="normal" in2="BackgroundImageFix" result="effect1_dropShadow_371_691"/>
<feBlend mode="normal" in="SourceGraphic" in2="effect1_dropShadow_371_691" result="shape"/>
</filter>
</defs>
</svg>
