<svg width="66" height="58" viewBox="0 0 66 58" fill="none" xmlns="http://www.w3.org/2000/svg">
<rect x="18.1928" y="1.55676" width="28.9391" height="28.9391" rx="14.4695" stroke="#141414" stroke-width="1.47864"/>
<path d="M41.8547 10.4487C41.634 9.62367 40.9836 8.97324 40.1586 8.7526C38.662 8.35159 32.6623 8.35159 32.6623 8.35159C32.6623 8.35159 26.6626 8.35159 25.1661 8.7526C24.341 8.97324 23.6906 9.62367 23.47 10.4487C23.069 11.9453 23.069 16.0263 23.069 16.0263C23.069 16.0263 23.069 20.1073 23.47 21.6039C23.6906 22.4289 24.341 23.0793 25.1661 23.3C26.6626 23.701 32.6623 23.701 32.6623 23.701C32.6623 23.701 38.662 23.701 40.1586 23.3C40.9846 23.0793 41.634 22.4289 41.8547 21.6039C42.2557 20.1073 42.2557 16.0263 42.2557 16.0263C42.2557 16.0263 42.2557 11.9453 41.8547 10.4487ZM30.7437 18.5186V13.5339C30.7437 13.1646 31.1437 12.9343 31.4632 13.1185L35.7802 15.6109C36.0996 15.7951 36.0996 16.2575 35.7802 16.4417L31.4632 18.934C31.1437 19.1192 30.7437 18.888 30.7437 18.5186Z" fill="black"/>
<g filter="url(#filter0_d_481_789)">
<path d="M14.8896 45.3793L16.6185 42.0466H17.9176L15.4842 46.5186V49.3516H14.2851V46.5585L11.8617 42.0466H13.1608L14.8896 45.3793ZM23.6586 46.5785C23.6586 47.4812 23.4271 48.1857 22.9641 48.692C22.501 49.1984 21.8565 49.4515 21.0304 49.4515C20.5141 49.4515 20.0577 49.3349 19.6613 49.1018C19.265 48.8686 18.9602 48.5338 18.747 48.0975C18.5338 47.6611 18.4272 47.1548 18.4272 46.5785C18.4272 45.6825 18.657 44.9829 19.1167 44.48C19.5764 43.977 20.2243 43.7255 21.0604 43.7255C21.8598 43.7255 22.4927 43.9836 22.9591 44.4999C23.4254 45.0129 23.6586 45.7058 23.6586 46.5785ZM19.6364 46.5785C19.6364 47.8543 20.1077 48.4922 21.0504 48.4922C21.9831 48.4922 22.4494 47.8543 22.4494 46.5785C22.4494 45.3161 21.9797 44.6848 21.0404 44.6848C20.5474 44.6848 20.1893 44.848 19.9661 45.1745C19.7463 45.5009 19.6364 45.9689 19.6364 46.5785ZM28.9099 49.3516L28.7451 48.6271H28.6851C28.5219 48.8836 28.2887 49.0851 27.9856 49.2317C27.6858 49.3782 27.3427 49.4515 26.9563 49.4515C26.2868 49.4515 25.7871 49.285 25.4573 48.9519C25.1276 48.6188 24.9627 48.1141 24.9627 47.4379V43.8254H26.1469V47.2331C26.1469 47.6561 26.2335 47.9742 26.4067 48.1874C26.5799 48.3973 26.8514 48.5022 27.2211 48.5022C27.7141 48.5022 28.0755 48.3556 28.3054 48.0625C28.5385 47.766 28.6551 47.2714 28.6551 46.5785V43.8254H29.8343V49.3516H28.9099ZM33.5667 48.5022C33.8532 48.5022 34.1397 48.4572 34.4261 48.3673V49.2517C34.2962 49.3083 34.128 49.3549 33.9215 49.3916C33.7183 49.4315 33.5068 49.4515 33.2869 49.4515C32.1744 49.4515 31.6181 48.8653 31.6181 47.6927V44.7148H30.8636V44.1952L31.673 43.7655L32.0728 42.5963H32.7973V43.8254H34.3712V44.7148H32.7973V47.6728C32.7973 47.9559 32.8672 48.1657 33.0071 48.3023C33.1504 48.4356 33.3369 48.5022 33.5667 48.5022ZM39.4327 49.3516L39.2678 48.6271H39.2078C39.0446 48.8836 38.8114 49.0851 38.5083 49.2317C38.2085 49.3782 37.8654 49.4515 37.479 49.4515C36.8095 49.4515 36.3098 49.285 35.9801 48.9519C35.6503 48.6188 35.4854 48.1141 35.4854 47.4379V43.8254H36.6696V47.2331C36.6696 47.6561 36.7562 47.9742 36.9294 48.1874C37.1026 48.3973 37.3741 48.5022 37.7438 48.5022C38.2368 48.5022 38.5982 48.3556 38.8281 48.0625C39.0613 47.766 39.1778 47.2714 39.1778 46.5785V43.8254H40.357V49.3516H39.4327ZM44.8539 43.7255C45.5434 43.7255 46.0797 43.9753 46.4628 44.475C46.8492 44.9746 47.0424 45.6758 47.0424 46.5785C47.0424 47.4846 46.8475 48.1907 46.4578 48.697C46.0681 49.2 45.5268 49.4515 44.8339 49.4515C44.1344 49.4515 43.5915 49.2 43.2051 48.697H43.1251L42.9103 49.3516H42.0309V41.577H43.2051V43.4257C43.2051 43.5623 43.1984 43.7655 43.1851 44.0353C43.1718 44.3051 43.1618 44.4766 43.1551 44.5499H43.2051C43.5781 44.0003 44.1278 43.7255 44.8539 43.7255ZM44.5491 44.6848C44.0761 44.6848 43.7347 44.8247 43.5248 45.1045C43.3183 45.381 43.2117 45.8457 43.2051 46.4986V46.5785C43.2051 47.2514 43.3117 47.7394 43.5248 48.0425C43.738 48.3423 44.0861 48.4922 44.5691 48.4922C44.9855 48.4922 45.3003 48.3273 45.5135 47.9975C45.73 47.6678 45.8382 47.1914 45.8382 46.5685C45.8382 45.3127 45.4085 44.6848 44.5491 44.6848ZM50.8198 49.4515C49.9604 49.4515 49.2875 49.2017 48.8012 48.702C48.3182 48.1991 48.0767 47.5079 48.0767 46.6285C48.0767 45.7258 48.3015 45.0163 48.7512 44.4999C49.2009 43.9836 49.8188 43.7255 50.6049 43.7255C51.3344 43.7255 51.9107 43.947 52.3337 44.39C52.7568 44.8331 52.9683 45.4426 52.9683 46.2188V46.8533H49.2859C49.3025 47.3896 49.4474 47.8027 49.7205 48.0925C49.9937 48.3789 50.3784 48.5222 50.8748 48.5222C51.2012 48.5222 51.5043 48.4922 51.7841 48.4322C52.0673 48.3689 52.3704 48.2657 52.6935 48.1224V49.0768C52.407 49.2134 52.1172 49.31 51.8241 49.3666C51.531 49.4232 51.1962 49.4515 50.8198 49.4515ZM50.6049 44.6149C50.2319 44.6149 49.9321 44.7331 49.7056 44.9696C49.4824 45.2061 49.3491 45.5509 49.3058 46.0039H51.8141C51.8074 45.5476 51.6975 45.2028 51.4843 44.9696C51.2711 44.7331 50.978 44.6149 50.6049 44.6149Z" fill="#141414"/>
</g>
<defs>
<filter id="filter0_d_481_789" x="10.1562" y="41.577" width="44.5175" height="11.2855" filterUnits="userSpaceOnUse" color-interpolation-filters="sRGB">
<feFlood flood-opacity="0" result="BackgroundImageFix"/>
<feColorMatrix in="SourceAlpha" type="matrix" values="0 0 0 0 0 0 0 0 0 0 0 0 0 0 0 0 0 0 127 0" result="hardAlpha"/>
<feOffset dy="1.70549"/>
<feGaussianBlur stdDeviation="0.852743"/>
<feComposite in2="hardAlpha" operator="out"/>
<feColorMatrix type="matrix" values="0 0 0 0 0 0 0 0 0 0 0 0 0 0 0 0 0 0 0.05 0"/>
<feBlend mode="normal" in2="BackgroundImageFix" result="effect1_dropShadow_481_789"/>
<feBlend mode="normal" in="SourceGraphic" in2="effect1_dropShadow_481_789" result="shape"/>
</filter>
</defs>
</svg>
